<svg id="svg" version="1.1" xmlns="http://www.w3.org/2000/svg" xmlns:xlink="http://www.w3.org/1999/xlink" width="400" height="400" viewBox="0, 0, 400,400"><g id="svgg"><path id="path0" d="M99.245 47.219 C 84.978 49.316,73.765 60.038,70.379 74.820 C 69.777 77.448,69.384 313.980,69.970 320.966 C 71.377 337.744,83.671 350.747,100.072 352.803 C 103.630 353.249,277.932 353.249,281.490 352.803 C 295.463 351.051,307.165 340.737,310.645 327.108 C 311.772 322.695,311.865 318.627,311.870 273.359 C 311.874 238.133,311.955 229.062,312.266 229.062 C 312.480 229.062,313.532 228.648,314.601 228.142 C 321.462 224.896,326.693 218.985,329.337 211.488 L 330.469 208.281 330.464 200.469 C 330.454 186.445,325.827 178.283,314.844 172.915 L 312.031 171.541 311.851 124.286 C 311.655 72.695,311.773 75.891,309.850 70.133 C 306.312 59.540,297.058 51.007,285.712 47.875 L 282.656 47.031 191.875 46.989 C 141.813 46.966,100.265 47.069,99.245 47.219 M125.625 200.023 L 125.625 346.609 113.984 346.482 C 103.238 346.364,102.141 346.301,99.701 345.666 C 89.076 342.901,80.399 334.449,77.521 324.062 C 76.210 319.330,76.213 319.696,76.312 197.500 L 76.406 79.844 77.244 76.811 C 80.176 66.198,87.629 58.226,97.769 54.858 C 101.301 53.685,103.625 53.495,114.766 53.466 L 125.625 53.438 125.625 200.023 M282.969 54.026 C 293.401 56.179,301.628 64.099,304.432 74.688 L 305.136 77.344 305.234 123.662 L 305.332 169.980 274.619 170.073 L 243.906 170.166 241.406 170.867 C 227.412 174.794,220.479 184.601,220.479 200.469 C 220.479 214.640,225.410 223.086,236.738 228.320 C 242.252 230.868,240.436 230.747,274.688 230.851 L 305.156 230.945 305.156 276.644 L 305.156 322.344 304.443 325.156 C 301.952 334.978,294.800 342.406,284.824 345.531 L 282.031 346.406 207.109 346.489 L 132.188 346.571 132.188 200.004 L 132.188 53.438 206.172 53.442 C 277.045 53.446,280.275 53.470,282.969 54.026 M309.219 177.601 C 319.206 181.126,324.193 188.741,324.193 200.469 C 324.193 212.722,318.130 221.196,307.500 223.798 C 304.974 224.416,245.964 224.416,243.438 223.798 C 232.798 221.193,226.745 212.733,226.745 200.469 C 226.745 189.200,231.306 181.686,240.313 178.119 C 244.188 176.583,243.790 176.599,276.250 176.661 L 306.719 176.719 309.219 177.601 M250.625 184.872 C 238.572 188.071,234.483 202.978,243.252 211.748 C 253.294 221.790,270.597 214.651,270.621 200.456 C 270.639 190.082,260.568 182.233,250.625 184.872 M259.018 192.037 C 266.398 196.054,265.385 207.161,257.423 209.525 C 247.847 212.369,240.818 200.559,247.957 193.621 C 250.876 190.785,255.500 190.123,259.018 192.037 " stroke="none" fill="#fcfcfc" fill-rule="evenodd"></path><path id="path1" d="" stroke="none" fill="#242424" fill-rule="evenodd"></path></g></svg>