<svg id="svg" version="1.1" xmlns="http://www.w3.org/2000/svg" xmlns:xlink="http://www.w3.org/1999/xlink" width="400" height="400" viewBox="0, 0, 400,400"><g id="svgg"><path id="path0" d="M95.401 43.998 C 95.264 44.219,94.544 44.400,93.800 44.400 C 93.056 44.400,92.336 44.580,92.200 44.800 C 92.064 45.020,91.620 45.200,91.214 45.200 C 90.567 45.200,88.200 46.206,86.400 47.246 C 86.070 47.437,84.990 48.036,84.000 48.577 C 75.320 53.325,68.545 63.296,66.589 74.200 C 65.551 79.983,65.733 321.427,66.778 326.456 C 68.574 335.092,72.107 341.559,77.901 346.812 C 80.362 349.044,86.416 353.200,87.206 353.200 C 87.409 353.200,88.217 353.560,89.000 354.000 C 89.783 354.440,90.721 354.800,91.084 354.800 C 91.825 354.800,94.240 355.516,95.295 356.049 C 96.301 356.557,285.486 356.509,285.800 356.000 C 285.936 355.780,286.656 355.600,287.400 355.600 C 288.144 355.600,288.864 355.420,289.000 355.200 C 289.136 354.980,289.591 354.800,290.011 354.800 C 290.432 354.800,291.417 354.440,292.200 354.000 C 292.983 353.560,293.951 353.200,294.350 353.200 C 294.749 353.200,295.402 352.840,295.800 352.400 C 296.198 351.960,296.668 351.600,296.844 351.600 C 297.837 351.600,303.806 346.786,305.418 344.685 C 306.068 343.838,307.160 342.482,307.844 341.673 C 309.426 339.799,312.241 334.599,312.595 332.896 C 312.743 332.179,313.139 331.042,313.474 330.371 C 314.764 327.787,314.917 322.663,315.062 277.396 L 315.207 232.192 316.451 231.642 C 318.188 230.873,320.800 229.123,320.800 228.729 C 320.800 228.548,321.039 228.400,321.331 228.400 C 321.782 228.400,325.754 224.469,328.643 221.164 C 330.311 219.255,332.213 214.287,333.569 208.294 C 334.639 203.564,333.916 190.768,332.364 186.957 C 330.831 183.195,329.350 180.382,328.069 178.800 C 324.924 174.915,319.307 170.000,318.013 170.000 C 317.620 170.000,317.074 169.730,316.800 169.400 C 316.526 169.070,316.057 168.800,315.758 168.800 C 315.302 168.800,315.189 161.250,315.068 122.700 C 314.921 76.069,314.804 72.294,313.423 69.526 C 313.080 68.839,312.800 67.952,312.800 67.555 C 312.800 66.210,309.284 59.989,306.769 56.886 C 303.906 53.352,298.114 48.400,296.844 48.400 C 296.668 48.400,296.198 48.040,295.800 47.600 C 295.402 47.160,294.749 46.800,294.350 46.800 C 293.951 46.800,292.983 46.440,292.200 46.000 C 291.417 45.560,290.432 45.200,290.011 45.200 C 289.591 45.200,289.148 45.040,289.027 44.844 C 288.906 44.649,288.131 44.349,287.304 44.179 C 284.958 43.697,95.698 43.519,95.401 43.998 M282.123 47.236 C 283.705 47.475,285.360 47.815,285.800 47.990 C 286.240 48.165,287.410 48.548,288.400 48.841 C 296.343 51.188,304.949 59.277,308.523 67.754 C 311.346 74.451,311.288 73.317,311.459 125.074 L 311.613 171.548 313.907 172.643 C 318.697 174.930,323.084 178.668,325.829 182.800 C 326.967 184.514,327.500 185.550,328.400 187.800 C 328.620 188.350,328.969 189.205,329.175 189.700 C 330.507 192.895,330.493 210.201,329.158 211.026 C 328.961 211.148,328.800 211.518,328.800 211.849 C 328.800 213.662,324.699 220.251,321.846 223.022 C 320.747 224.089,314.947 228.000,314.464 228.000 C 314.259 228.000,313.576 228.267,312.946 228.594 L 311.800 229.189 311.552 275.294 C 311.276 326.588,311.329 325.589,308.523 332.246 C 305.867 338.545,297.025 348.400,294.028 348.400 C 293.793 348.400,293.600 348.536,293.600 348.702 C 293.600 348.869,293.015 349.244,292.300 349.536 C 287.759 351.391,287.565 351.463,285.800 351.949 C 281.425 353.154,277.851 353.199,190.227 353.168 C 102.192 353.137,96.528 353.061,95.366 351.899 C 95.201 351.735,94.644 351.600,94.128 351.600 C 93.612 351.600,92.877 351.439,92.495 351.242 C 92.113 351.045,90.540 350.281,89.000 349.545 C 87.460 348.808,86.020 348.066,85.800 347.896 C 85.580 347.726,84.195 346.691,82.722 345.597 C 79.118 342.919,75.581 338.614,73.555 334.441 C 72.637 332.549,71.731 330.687,71.542 330.305 C 71.354 329.923,71.200 329.284,71.200 328.885 C 71.200 328.486,71.038 327.989,70.841 327.780 C 69.954 326.842,69.880 316.942,69.880 200.000 C 69.880 83.058,69.954 73.158,70.841 72.220 C 71.038 72.011,71.200 71.514,71.200 71.115 C 71.200 70.716,71.355 70.077,71.544 69.695 C 71.733 69.313,72.522 67.650,73.298 66.000 C 75.602 61.101,83.438 52.400,85.545 52.400 C 85.759 52.400,85.993 52.255,86.067 52.079 C 86.140 51.902,87.460 51.161,89.000 50.432 C 90.540 49.704,92.113 48.948,92.495 48.754 C 92.877 48.559,93.612 48.400,94.128 48.400 C 94.644 48.400,95.201 48.265,95.364 48.100 C 96.459 46.998,102.867 46.913,189.923 46.857 C 252.576 46.817,280.105 46.930,282.123 47.236 M103.600 53.600 C 103.270 53.813,102.355 53.991,101.566 53.994 C 100.777 53.997,98.977 54.377,97.566 54.837 C 87.092 58.253,79.751 66.206,76.738 77.400 C 76.012 80.099,75.929 320.682,76.654 322.600 C 76.903 323.260,77.347 324.610,77.640 325.600 C 78.211 327.530,80.839 332.839,81.600 333.600 C 81.710 333.710,82.657 334.822,83.705 336.070 C 87.573 340.679,94.729 344.913,99.930 345.671 C 101.399 345.886,103.153 346.227,103.828 346.430 C 104.504 346.634,109.589 346.800,115.128 346.800 L 125.200 346.800 125.200 200.000 L 125.200 53.200 114.700 53.206 C 108.612 53.210,103.948 53.375,103.600 53.600 M132.000 200.000 L 132.000 346.800 205.194 346.800 C 250.176 346.800,279.046 346.653,280.094 346.418 C 281.032 346.209,282.755 345.849,283.922 345.620 C 285.772 345.257,289.607 343.614,292.801 341.815 C 294.018 341.130,299.577 335.389,300.370 333.999 C 302.631 330.036,304.000 326.775,304.000 325.352 C 304.000 324.916,304.181 324.379,304.402 324.158 C 304.667 323.893,304.769 308.057,304.702 277.463 L 304.600 231.169 275.400 231.032 C 247.221 230.900,242.236 230.743,241.420 229.963 C 241.211 229.763,240.624 229.600,240.115 229.600 C 239.606 229.600,238.877 229.439,238.495 229.242 C 238.113 229.045,236.623 228.318,235.185 227.625 C 227.397 223.876,221.218 215.217,220.181 206.600 C 219.616 201.901,220.037 191.846,220.834 191.020 C 221.035 190.811,221.200 190.314,221.200 189.915 C 221.200 189.516,221.364 188.877,221.564 188.495 C 221.764 188.113,222.170 187.260,222.467 186.600 C 224.846 181.301,233.176 172.800,235.987 172.800 C 236.220 172.800,236.813 172.592,237.305 172.338 C 239.251 171.332,239.623 171.200,240.515 171.200 C 241.024 171.200,241.619 171.021,241.838 170.802 C 242.092 170.548,253.432 170.368,273.418 170.302 L 304.600 170.200 304.702 123.222 C 304.769 92.171,304.667 76.107,304.402 75.842 C 304.181 75.621,304.000 75.084,304.000 74.648 C 304.000 73.223,302.538 69.749,300.370 66.020 C 298.821 63.356,291.860 56.800,290.580 56.800 C 290.479 56.800,289.464 56.350,288.324 55.800 C 287.184 55.251,285.160 54.607,283.826 54.369 C 282.492 54.132,280.847 53.772,280.172 53.569 C 279.441 53.350,249.157 53.200,205.472 53.200 L 132.000 53.200 132.000 200.000 M121.600 200.000 L 121.600 342.800 112.424 342.800 C 106.737 342.800,103.153 342.648,103.000 342.400 C 102.864 342.180,102.144 342.000,101.400 342.000 C 100.656 342.000,99.936 341.820,99.800 341.600 C 99.664 341.380,99.238 341.200,98.853 341.200 C 96.863 341.200,89.554 336.514,87.380 333.844 C 86.731 333.047,85.728 331.811,85.152 331.098 C 83.959 329.621,81.530 324.929,80.496 322.102 C 79.393 319.088,79.419 80.853,80.523 77.800 C 83.193 70.412,88.315 63.920,93.800 60.972 C 98.272 58.568,99.689 58.000,101.214 58.000 C 102.060 58.000,102.864 57.820,103.000 57.600 C 103.153 57.352,106.737 57.200,112.424 57.200 L 121.600 57.200 121.600 200.000 M282.400 57.759 C 284.325 58.172,290.301 61.164,290.562 61.845 C 290.679 62.150,291.011 62.400,291.300 62.400 C 293.274 62.400,298.451 69.657,300.250 74.947 L 301.200 77.740 301.200 121.870 L 301.200 166.000 274.207 166.000 C 256.942 166.000,246.167 166.156,244.307 166.432 C 224.936 169.310,214.381 183.789,216.382 204.741 C 217.127 212.547,220.330 221.191,222.900 222.333 C 223.065 222.407,223.200 222.694,223.200 222.972 C 223.200 223.399,225.837 226.046,229.000 228.796 C 230.204 229.842,236.117 232.726,238.077 233.222 C 243.982 234.717,244.910 234.758,273.300 234.779 L 301.200 234.800 301.200 278.530 L 301.200 322.260 300.250 325.053 C 297.377 333.499,289.991 340.611,282.400 342.241 C 281.630 342.406,248.285 342.601,208.300 342.674 L 135.600 342.806 135.585 341.103 C 135.565 338.927,135.566 66.316,135.585 61.097 L 135.600 57.194 208.300 57.326 C 248.285 57.399,281.630 57.594,282.400 57.759 M243.531 176.948 C 242.503 177.196,241.528 177.535,241.364 177.700 C 241.201 177.865,240.647 178.000,240.133 178.000 C 239.620 178.000,239.200 178.180,239.200 178.400 C 239.200 178.620,238.917 178.800,238.572 178.800 C 236.643 178.800,230.443 184.868,228.670 188.493 C 226.474 192.982,225.591 202.121,226.831 207.523 C 228.564 215.070,235.148 221.854,242.579 223.750 C 244.499 224.240,305.536 224.335,307.400 223.851 C 311.425 222.806,315.233 220.513,318.245 217.322 C 320.272 215.173,322.800 210.901,322.800 209.624 C 322.800 209.259,323.025 208.735,323.300 208.460 C 323.665 208.095,323.800 205.915,323.800 200.400 C 323.800 194.885,323.665 192.705,323.300 192.340 C 323.025 192.065,322.800 191.521,322.800 191.132 C 322.800 189.268,317.002 181.200,315.662 181.200 C 315.462 181.200,315.077 180.934,314.808 180.609 C 313.985 179.618,309.386 177.589,306.294 176.853 C 303.637 176.221,246.175 176.307,243.531 176.948 M248.400 181.370 C 247.630 181.664,246.380 182.136,245.622 182.419 C 236.668 185.759,231.453 200.934,236.417 209.200 C 236.616 209.530,237.081 210.402,237.452 211.137 C 239.290 214.782,244.374 218.655,248.371 219.454 C 250.990 219.978,250.170 220.532,247.163 220.269 C 226.360 218.454,223.256 187.969,243.200 181.349 C 245.383 180.624,250.300 180.644,248.400 181.370 M307.172 181.261 C 312.049 182.834,316.278 186.525,318.640 191.271 L 320.097 194.200 320.149 200.200 C 320.195 205.655,320.118 206.372,319.300 208.096 C 318.805 209.138,318.400 210.104,318.400 210.242 C 318.400 211.977,312.829 217.109,308.757 219.125 L 306.600 220.192 282.200 220.282 C 268.375 220.332,258.147 220.222,258.600 220.028 C 259.040 219.839,260.210 219.453,261.200 219.170 C 262.190 218.887,263.244 218.470,263.543 218.244 C 264.241 217.713,265.579 216.936,266.615 216.459 C 268.113 215.770,272.000 210.862,272.000 209.660 C 272.000 209.213,272.180 208.736,272.400 208.600 C 272.620 208.464,272.800 207.949,272.800 207.456 C 272.800 206.963,272.994 206.366,273.230 206.130 C 273.510 205.850,273.615 203.689,273.530 199.950 L 273.400 194.200 271.800 190.904 C 270.920 189.091,269.885 187.504,269.500 187.377 C 269.115 187.250,268.800 186.921,268.800 186.645 C 268.800 186.143,267.032 184.400,266.523 184.400 C 266.374 184.400,265.880 184.076,265.426 183.680 C 264.534 182.903,260.824 181.352,259.200 181.078 C 258.650 180.985,268.897 180.884,281.972 180.854 C 298.950 180.816,306.151 180.932,307.172 181.261 M258.281 184.850 C 261.018 185.950,261.454 186.132,262.354 186.550 C 264.069 187.346,267.614 191.205,268.578 193.325 C 271.143 198.962,271.093 202.261,268.354 208.200 C 267.090 210.939,261.316 215.600,259.186 215.600 C 258.780 215.600,258.336 215.780,258.200 216.000 C 258.064 216.221,256.270 216.400,254.200 216.400 C 252.130 216.400,250.336 216.221,250.200 216.000 C 250.064 215.780,249.620 215.600,249.214 215.600 C 246.138 215.600,239.200 208.701,239.200 205.642 C 239.200 205.267,239.007 204.767,238.771 204.531 C 238.303 204.063,238.470 197.461,239.003 195.400 C 240.084 191.215,244.953 186.635,250.200 184.867 C 251.848 184.312,256.917 184.301,258.281 184.850 M250.850 191.457 C 243.185 194.272,242.529 205.172,249.800 208.902 C 255.180 211.662,261.167 209.298,263.212 203.606 C 265.931 196.035,258.437 188.671,250.850 191.457 M256.600 195.543 C 260.717 198.084,261.267 201.200,258.128 204.207 C 255.233 206.981,253.130 206.777,249.930 203.411 C 246.320 199.612,252.115 192.776,256.600 195.543 " stroke="none" fill="#a0a0a0" fill-rule="evenodd"></path><path id="path1" d="M98.131 47.357 C 96.773 47.601,95.528 47.935,95.364 48.100 C 95.201 48.265,94.644 48.400,94.128 48.400 C 93.612 48.400,92.877 48.559,92.495 48.754 C 92.113 48.948,90.540 49.704,89.000 50.432 C 87.460 51.161,86.140 51.902,86.067 52.079 C 85.993 52.255,85.759 52.400,85.545 52.400 C 83.438 52.400,75.602 61.101,73.298 66.000 C 72.522 67.650,71.733 69.313,71.544 69.695 C 71.355 70.077,71.200 70.716,71.200 71.115 C 71.200 71.514,71.038 72.011,70.841 72.220 C 69.954 73.158,69.880 83.058,69.880 200.000 C 69.880 316.942,69.954 326.842,70.841 327.780 C 71.038 327.989,71.200 328.486,71.200 328.885 C 71.200 329.284,71.354 329.923,71.542 330.305 C 71.731 330.687,72.637 332.549,73.555 334.441 C 75.581 338.614,79.118 342.919,82.722 345.597 C 84.195 346.691,85.580 347.726,85.800 347.896 C 86.020 348.066,87.460 348.808,89.000 349.545 C 90.540 350.281,92.113 351.045,92.495 351.242 C 92.877 351.439,93.612 351.600,94.128 351.600 C 94.644 351.600,95.201 351.735,95.366 351.899 C 96.528 353.061,102.192 353.137,190.227 353.168 C 277.851 353.199,281.425 353.154,285.800 351.949 C 287.565 351.463,287.759 351.391,292.300 349.536 C 293.015 349.244,293.600 348.869,293.600 348.702 C 293.600 348.536,293.793 348.400,294.028 348.400 C 297.025 348.400,305.867 338.545,308.523 332.246 C 311.329 325.589,311.276 326.588,311.552 275.294 L 311.800 229.189 312.946 228.594 C 313.576 228.267,314.259 228.000,314.464 228.000 C 314.947 228.000,320.747 224.089,321.846 223.022 C 324.699 220.251,328.800 213.662,328.800 211.849 C 328.800 211.518,328.961 211.148,329.158 211.026 C 330.493 210.201,330.507 192.895,329.175 189.700 C 328.969 189.205,328.620 188.350,328.400 187.800 C 327.500 185.550,326.967 184.514,325.829 182.800 C 323.084 178.668,318.697 174.930,313.907 172.643 L 311.613 171.548 311.459 125.074 C 311.288 73.317,311.346 74.451,308.523 67.754 C 304.949 59.277,296.343 51.188,288.400 48.841 C 287.410 48.548,286.240 48.165,285.800 47.990 C 282.993 46.871,277.094 46.801,189.923 46.857 C 126.634 46.898,99.880 47.044,98.131 47.357 M125.200 200.000 L 125.200 346.800 115.128 346.800 C 109.589 346.800,104.504 346.634,103.828 346.430 C 103.153 346.227,101.399 345.886,99.930 345.671 C 94.729 344.913,87.573 340.679,83.705 336.070 C 82.657 334.822,81.710 333.710,81.600 333.600 C 80.839 332.839,78.211 327.530,77.640 325.600 C 77.347 324.610,76.903 323.260,76.654 322.600 C 75.929 320.682,76.012 80.099,76.738 77.400 C 79.751 66.206,87.092 58.253,97.566 54.837 C 98.977 54.377,100.777 53.997,101.566 53.994 C 102.355 53.991,103.270 53.813,103.600 53.600 C 103.948 53.375,108.612 53.210,114.700 53.206 L 125.200 53.200 125.200 200.000 M280.172 53.569 C 280.847 53.772,282.492 54.132,283.826 54.369 C 285.160 54.607,287.184 55.251,288.324 55.800 C 289.464 56.350,290.479 56.800,290.580 56.800 C 291.860 56.800,298.821 63.356,300.370 66.020 C 302.538 69.749,304.000 73.223,304.000 74.648 C 304.000 75.084,304.181 75.621,304.402 75.842 C 304.667 76.107,304.769 92.171,304.702 123.222 L 304.600 170.200 273.418 170.302 C 253.432 170.368,242.092 170.548,241.838 170.802 C 241.619 171.021,241.024 171.200,240.515 171.200 C 239.623 171.200,239.251 171.332,237.305 172.338 C 236.813 172.592,236.220 172.800,235.987 172.800 C 233.176 172.800,224.846 181.301,222.467 186.600 C 222.170 187.260,221.764 188.113,221.564 188.495 C 221.364 188.877,221.200 189.516,221.200 189.915 C 221.200 190.314,221.035 190.811,220.834 191.020 C 220.037 191.846,219.616 201.901,220.181 206.600 C 221.218 215.217,227.397 223.876,235.185 227.625 C 236.623 228.318,238.113 229.045,238.495 229.242 C 238.877 229.439,239.606 229.600,240.115 229.600 C 240.624 229.600,241.211 229.763,241.420 229.963 C 242.236 230.743,247.221 230.900,275.400 231.032 L 304.600 231.169 304.702 277.463 C 304.769 308.057,304.667 323.893,304.402 324.158 C 304.181 324.379,304.000 324.916,304.000 325.352 C 304.000 326.775,302.631 330.036,300.370 333.999 C 299.577 335.389,294.018 341.130,292.801 341.815 C 289.607 343.614,285.772 345.257,283.922 345.620 C 282.755 345.849,281.032 346.209,280.094 346.418 C 279.046 346.653,250.176 346.800,205.194 346.800 L 132.000 346.800 132.000 200.000 L 132.000 53.200 205.472 53.200 C 249.157 53.200,279.441 53.350,280.172 53.569 M306.294 176.853 C 309.386 177.589,313.985 179.618,314.808 180.609 C 315.077 180.934,315.462 181.200,315.662 181.200 C 317.002 181.200,322.800 189.268,322.800 191.132 C 322.800 191.521,323.025 192.065,323.300 192.340 C 323.665 192.705,323.800 194.885,323.800 200.400 C 323.800 205.915,323.665 208.095,323.300 208.460 C 323.025 208.735,322.800 209.259,322.800 209.624 C 322.800 210.901,320.272 215.173,318.245 217.322 C 315.233 220.513,311.425 222.806,307.400 223.851 C 305.536 224.335,244.499 224.240,242.579 223.750 C 235.148 221.854,228.564 215.070,226.831 207.523 C 225.591 202.121,226.474 192.982,228.670 188.493 C 230.443 184.868,236.643 178.800,238.572 178.800 C 238.917 178.800,239.200 178.620,239.200 178.400 C 239.200 178.180,239.620 178.000,240.133 178.000 C 240.647 178.000,241.201 177.865,241.364 177.700 C 242.409 176.646,246.505 176.493,274.894 176.448 C 295.641 176.414,304.954 176.534,306.294 176.853 M250.200 184.867 C 244.953 186.635,240.084 191.215,239.003 195.400 C 238.470 197.461,238.303 204.063,238.771 204.531 C 239.007 204.767,239.200 205.267,239.200 205.642 C 239.200 208.701,246.138 215.600,249.214 215.600 C 249.620 215.600,250.064 215.780,250.200 216.000 C 250.336 216.221,252.130 216.400,254.200 216.400 C 256.270 216.400,258.064 216.221,258.200 216.000 C 258.336 215.780,258.780 215.600,259.186 215.600 C 261.316 215.600,267.090 210.939,268.354 208.200 C 271.093 202.261,271.143 198.962,268.578 193.325 C 267.614 191.205,264.069 187.346,262.354 186.550 C 261.454 186.132,261.018 185.950,258.281 184.850 C 256.917 184.301,251.848 184.312,250.200 184.867 M259.131 192.279 C 264.730 195.740,265.435 203.033,260.601 207.475 C 251.353 215.972,238.800 202.486,247.650 193.562 C 250.598 190.590,255.511 190.040,259.131 192.279 " stroke="none" fill="#040404" fill-rule="evenodd"></path></g></svg>